<mxfile host="app.diagrams.net" modified="2024-05-16T11:34:59.259Z" agent="Mozilla/5.0 (Windows NT 10.0; Win64; x64) AppleWebKit/537.36 (KHTML, like Gecko) Chrome/124.0.0.0 Safari/537.36" version="24.4.2" etag="Lcig4DZ078SyXtEYgh5_" type="github">
  <diagram name="第 1 页" id="gWZWfyjnsbZ3ENb_1MQk">
    <mxGraphModel>
      <root>
        <mxCell id="0" />
        <mxCell id="1" parent="0" />
      </root>
    </mxGraphModel>
  </diagram>
</mxfile>
